<svg width="67" height="65" viewBox="0 0 67 65" fill="none" xmlns="http://www.w3.org/2000/svg">
<g opacity="0.2">
<path d="M4.7551 2.5C4.7551 3.88071 3.69064 5 2.37755 5C1.06447 5 0 3.88071 0 2.5C0 1.11929 1.06447 0 2.37755 0C3.69064 0 4.7551 1.11929 4.7551 2.5Z" fill="#D52B22"/>
<path d="M17.1184 2.5C17.1184 3.88071 16.0539 5 14.7408 5C13.4277 5 12.3633 3.88071 12.3633 2.5C12.3633 1.11929 13.4277 0 14.7408 0C16.0539 0 17.1184 1.11929 17.1184 2.5Z" fill="#D52B22"/>
<path d="M29.4816 2.5C29.4816 3.88071 28.4172 5 27.1041 5C25.791 5 24.7265 3.88071 24.7265 2.5C24.7265 1.11929 25.791 0 27.1041 0C28.4172 0 29.4816 1.11929 29.4816 2.5Z" fill="#D52B22"/>
<path d="M41.8449 2.5C41.8449 3.88071 40.7804 5 39.4673 5C38.1543 5 37.0898 3.88071 37.0898 2.5C37.0898 1.11929 38.1543 0 39.4673 0C40.7804 0 41.8449 1.11929 41.8449 2.5Z" fill="#D52B22"/>
<path d="M54.2081 2.5C54.2081 3.88071 53.1437 5 51.8306 5C50.5175 5 49.453 3.88071 49.453 2.5C49.453 1.11929 50.5175 0 51.8306 0C53.1437 0 54.2081 1.11929 54.2081 2.5Z" fill="#D52B22"/>
<path d="M66.5714 2.5C66.5714 3.88071 65.507 5 64.1939 5C62.8808 5 61.8163 3.88071 61.8163 2.5C61.8163 1.11929 62.8808 0 64.1939 0C65.507 0 66.5714 1.11929 66.5714 2.5Z" fill="#D52B22"/>
<path d="M4.7551 14.5C4.7551 15.8807 3.69064 17 2.37755 17C1.06447 17 0 15.8807 0 14.5C0 13.1193 1.06447 12 2.37755 12C3.69064 12 4.7551 13.1193 4.7551 14.5Z" fill="#D52B22"/>
<path d="M17.1184 14.5C17.1184 15.8807 16.0539 17 14.7408 17C13.4277 17 12.3633 15.8807 12.3633 14.5C12.3633 13.1193 13.4277 12 14.7408 12C16.0539 12 17.1184 13.1193 17.1184 14.5Z" fill="#D52B22"/>
<path d="M29.4816 14.5C29.4816 15.8807 28.4172 17 27.1041 17C25.791 17 24.7265 15.8807 24.7265 14.5C24.7265 13.1193 25.791 12 27.1041 12C28.4172 12 29.4816 13.1193 29.4816 14.5Z" fill="#D52B22"/>
<path d="M41.8449 14.5C41.8449 15.8807 40.7804 17 39.4673 17C38.1543 17 37.0898 15.8807 37.0898 14.5C37.0898 13.1193 38.1543 12 39.4673 12C40.7804 12 41.8449 13.1193 41.8449 14.5Z" fill="#D52B22"/>
<path d="M54.2081 14.5C54.2081 15.8807 53.1437 17 51.8306 17C50.5175 17 49.453 15.8807 49.453 14.5C49.453 13.1193 50.5175 12 51.8306 12C53.1437 12 54.2081 13.1193 54.2081 14.5Z" fill="#D52B22"/>
<path d="M66.5714 14.5C66.5714 15.8807 65.507 17 64.1939 17C62.8808 17 61.8163 15.8807 61.8163 14.5C61.8163 13.1193 62.8808 12 64.1939 12C65.507 12 66.5714 13.1193 66.5714 14.5Z" fill="#D52B22"/>
<path d="M4.7551 26.5C4.7551 27.8807 3.69064 29 2.37755 29C1.06447 29 0 27.8807 0 26.5C0 25.1193 1.06447 24 2.37755 24C3.69064 24 4.7551 25.1193 4.7551 26.5Z" fill="#D52B22"/>
<path d="M17.1184 26.5C17.1184 27.8807 16.0539 29 14.7408 29C13.4277 29 12.3633 27.8807 12.3633 26.5C12.3633 25.1193 13.4277 24 14.7408 24C16.0539 24 17.1184 25.1193 17.1184 26.5Z" fill="#D52B22"/>
<path d="M29.4816 26.5C29.4816 27.8807 28.4172 29 27.1041 29C25.791 29 24.7265 27.8807 24.7265 26.5C24.7265 25.1193 25.791 24 27.1041 24C28.4172 24 29.4816 25.1193 29.4816 26.5Z" fill="#D52B22"/>
<path d="M41.8449 26.5C41.8449 27.8807 40.7804 29 39.4673 29C38.1543 29 37.0898 27.8807 37.0898 26.5C37.0898 25.1193 38.1543 24 39.4673 24C40.7804 24 41.8449 25.1193 41.8449 26.5Z" fill="#D52B22"/>
<path d="M54.2081 26.5C54.2081 27.8807 53.1437 29 51.8306 29C50.5175 29 49.453 27.8807 49.453 26.5C49.453 25.1193 50.5175 24 51.8306 24C53.1437 24 54.2081 25.1193 54.2081 26.5Z" fill="#D52B22"/>
<path d="M66.5714 26.5C66.5714 27.8807 65.507 29 64.1939 29C62.8808 29 61.8163 27.8807 61.8163 26.5C61.8163 25.1193 62.8808 24 64.1939 24C65.507 24 66.5714 25.1193 66.5714 26.5Z" fill="#D52B22"/>
<path d="M4.7551 38.5C4.7551 39.8807 3.69064 41 2.37755 41C1.06447 41 0 39.8807 0 38.5C0 37.1193 1.06447 36 2.37755 36C3.69064 36 4.7551 37.1193 4.7551 38.5Z" fill="#D52B22"/>
<path d="M17.1184 38.5C17.1184 39.8807 16.0539 41 14.7408 41C13.4277 41 12.3633 39.8807 12.3633 38.5C12.3633 37.1193 13.4277 36 14.7408 36C16.0539 36 17.1184 37.1193 17.1184 38.5Z" fill="#D52B22"/>
<path d="M29.4816 38.5C29.4816 39.8807 28.4172 41 27.1041 41C25.791 41 24.7265 39.8807 24.7265 38.5C24.7265 37.1193 25.791 36 27.1041 36C28.4172 36 29.4816 37.1193 29.4816 38.5Z" fill="#D52B22"/>
<path d="M41.8449 38.5C41.8449 39.8807 40.7804 41 39.4673 41C38.1543 41 37.0898 39.8807 37.0898 38.5C37.0898 37.1193 38.1543 36 39.4673 36C40.7804 36 41.8449 37.1193 41.8449 38.5Z" fill="#D52B22"/>
<path d="M54.2081 38.5C54.2081 39.8807 53.1437 41 51.8306 41C50.5175 41 49.453 39.8807 49.453 38.5C49.453 37.1193 50.5175 36 51.8306 36C53.1437 36 54.2081 37.1193 54.2081 38.5Z" fill="#D52B22"/>
<path d="M66.5714 38.5C66.5714 39.8807 65.507 41 64.1939 41C62.8808 41 61.8163 39.8807 61.8163 38.5C61.8163 37.1193 62.8808 36 64.1939 36C65.507 36 66.5714 37.1193 66.5714 38.5Z" fill="#D52B22"/>
<path d="M4.7551 50.5C4.7551 51.8807 3.69064 53 2.37755 53C1.06447 53 0 51.8807 0 50.5C0 49.1193 1.06447 48 2.37755 48C3.69064 48 4.7551 49.1193 4.7551 50.5Z" fill="#D52B22"/>
<path d="M17.1184 50.5C17.1184 51.8807 16.0539 53 14.7408 53C13.4277 53 12.3633 51.8807 12.3633 50.5C12.3633 49.1193 13.4277 48 14.7408 48C16.0539 48 17.1184 49.1193 17.1184 50.5Z" fill="#D52B22"/>
<path d="M29.4816 50.5C29.4816 51.8807 28.4172 53 27.1041 53C25.791 53 24.7265 51.8807 24.7265 50.5C24.7265 49.1193 25.791 48 27.1041 48C28.4172 48 29.4816 49.1193 29.4816 50.5Z" fill="#D52B22"/>
<path d="M41.8449 50.5C41.8449 51.8807 40.7804 53 39.4673 53C38.1543 53 37.0898 51.8807 37.0898 50.5C37.0898 49.1193 38.1543 48 39.4673 48C40.7804 48 41.8449 49.1193 41.8449 50.5Z" fill="#D52B22"/>
<path d="M54.2081 50.5C54.2081 51.8807 53.1437 53 51.8306 53C50.5175 53 49.453 51.8807 49.453 50.5C49.453 49.1193 50.5175 48 51.8306 48C53.1437 48 54.2081 49.1193 54.2081 50.5Z" fill="#D52B22"/>
<path d="M66.5714 50.5C66.5714 51.8807 65.507 53 64.1939 53C62.8808 53 61.8163 51.8807 61.8163 50.5C61.8163 49.1193 62.8808 48 64.1939 48C65.507 48 66.5714 49.1193 66.5714 50.5Z" fill="#D52B22"/>
<path d="M4.7551 62.5C4.7551 63.8807 3.69064 65 2.37755 65C1.06447 65 0 63.8807 0 62.5C0 61.1193 1.06447 60 2.37755 60C3.69064 60 4.7551 61.1193 4.7551 62.5Z" fill="#D52B22"/>
<path d="M17.1184 62.5C17.1184 63.8807 16.0539 65 14.7408 65C13.4277 65 12.3633 63.8807 12.3633 62.5C12.3633 61.1193 13.4277 60 14.7408 60C16.0539 60 17.1184 61.1193 17.1184 62.5Z" fill="#D52B22"/>
<path d="M29.4816 62.5C29.4816 63.8807 28.4172 65 27.1041 65C25.791 65 24.7265 63.8807 24.7265 62.5C24.7265 61.1193 25.791 60 27.1041 60C28.4172 60 29.4816 61.1193 29.4816 62.5Z" fill="#D52B22"/>
<path d="M41.8449 62.5C41.8449 63.8807 40.7804 65 39.4673 65C38.1543 65 37.0898 63.8807 37.0898 62.5C37.0898 61.1193 38.1543 60 39.4673 60C40.7804 60 41.8449 61.1193 41.8449 62.5Z" fill="#D52B22"/>
<path d="M54.2081 62.5C54.2081 63.8807 53.1437 65 51.8306 65C50.5175 65 49.453 63.8807 49.453 62.5C49.453 61.1193 50.5175 60 51.8306 60C53.1437 60 54.2081 61.1193 54.2081 62.5Z" fill="#D52B22"/>
<path d="M66.5714 62.5C66.5714 63.8807 65.507 65 64.1939 65C62.8808 65 61.8163 63.8807 61.8163 62.5C61.8163 61.1193 62.8808 60 64.1939 60C65.507 60 66.5714 61.1193 66.5714 62.5Z" fill="#D52B22"/>
</g>
</svg>
