<svg width="48" height="42" viewBox="0 0 48 42" fill="none" xmlns="http://www.w3.org/2000/svg">
<path d="M43.5 21C45.9375 21 48 23.0625 48 25.5V37.5C48 40.0312 45.9375 42 43.5 42H31.5C28.9688 42 27 40.0312 27 37.5V15C27 6.75 33.6562 0 42 0H42.75C43.9688 0 45 1.03125 45 2.25V6.75C45 8.0625 43.9688 9 42.75 9H42C38.625 9 36 11.7188 36 15V21H43.5ZM16.5 21C18.9375 21 21 23.0625 21 25.5V37.5C21 40.0312 18.9375 42 16.5 42H4.5C1.96875 42 0 40.0312 0 37.5V15C0 6.75 6.65625 0 15 0H15.75C16.9688 0 18 1.03125 18 2.25V6.75C18 8.0625 16.9688 9 15.75 9H15C11.625 9 9 11.7188 9 15V21H16.5Z" fill="white"/>
</svg>
