<svg xmlns="http://www.w3.org/2000/svg" viewBox="0 0 64 64"><title>Artboard-18</title><g id="Truck_Delivery" data-name="Truck Delivery"><path d="M63,29H56.667L51.923,17.615A1,1,0,0,0,51,17H38V12a1,1,0,0,0-1-1H1a1,1,0,0,0-1,1V46a1,1,0,0,0,1,1H7.08a6.991,6.991,0,0,0,13.84,0H42.08a6.991,6.991,0,0,0,13.84,0H63a1,1,0,0,0,1-1V30A1,1,0,0,0,63,29ZM14,51a5,5,0,1,1,5-5A5.006,5.006,0,0,1,14,51Zm22-6H20.92A6.991,6.991,0,0,0,7.08,45H2V13H36Zm2-22h9.663l2.5,6H38ZM49,51a5,5,0,1,1,5-5A5.006,5.006,0,0,1,49,51ZM62,38H59V36h3Zm0-4H58a1,1,0,0,0-1,1v4a1,1,0,0,0,1,1h4v5H55.92a6.991,6.991,0,0,0-13.84,0H38V31H51.66a1,1,0,0,0,.923-1.384l-3.33-8A1,1,0,0,0,48.33,21H38V19H50.333l4.744,11.385A1,1,0,0,0,56,31h6Z" style="fill:#2c2d30"/><path d="M49,43a3,3,0,1,0,3,3A3,3,0,0,0,49,43Zm0,4a1,1,0,1,1,1-1A1,1,0,0,1,49,47Z" style="fill:#2c2d30"/><path d="M14,43a3,3,0,1,0,3,3A3,3,0,0,0,14,43Zm0,4a1,1,0,1,1,1-1A1,1,0,0,1,14,47Z" style="fill:#2c2d30"/><path d="M9,36H29a1,1,0,0,0,1-1V17a1,1,0,0,0-1-1H9a1,1,0,0,0-1,1V35A1,1,0,0,0,9,36Zm8-18h4v4H17Zm-7,0h5v5a1,1,0,0,0,1,1h6a1,1,0,0,0,1-1V18h5V34H10Z" style="fill:#2c2d30"/><path d="M18,28H12a1,1,0,0,0,0,2h6a1,1,0,0,0,0-2Z" style="fill:#2c2d30"/><path d="M15,31H12a1,1,0,0,0,0,2h3a1,1,0,0,0,0-2Z" style="fill:#2c2d30"/><path d="M43,33H41a1,1,0,0,0,0,2h2a1,1,0,0,0,0-2Z" style="fill:#2c2d30"/></g></svg>