<svg xmlns="http://www.w3.org/2000/svg" viewBox="0 0 64 64"><title>Artboard-26</title><g id="Delivery_Box" data-name="Delivery Box"><path d="M14,9a5,5,0,1,0-5,5A5.006,5.006,0,0,0,14,9ZM6,9a3,3,0,1,1,3,3A3,3,0,0,1,6,9Z" style="fill:#2c2d30"/><path d="M60,50a5,5,0,1,0-5,5A5.006,5.006,0,0,0,60,50Zm-8,0a3,3,0,1,1,3,3A3,3,0,0,1,52,50Z" style="fill:#2c2d30"/><path d="M11,28a1,1,0,0,0-1,1V46a1,1,0,0,0,1,1H31a1,1,0,0,0,1-1V29a1,1,0,0,0-1-1Zm12,2v4H19V30Zm7,15H12V30h5v5a1,1,0,0,0,1,1h6a1,1,0,0,0,1-1V30h5Z" style="fill:#2c2d30"/><path d="M20,39H14a1,1,0,0,0,0,2h6a1,1,0,0,0,0-2Z" style="fill:#2c2d30"/><path d="M17,42H14a1,1,0,0,0,0,2h3a1,1,0,0,0,0-2Z" style="fill:#2c2d30"/><path d="M59,62H57.469C59.926,59.457,64,54.559,64,50a9,9,0,0,0-18,0c0,4.559,4.074,9.457,6.531,12H51a1,1,0,0,0,0,2h8a1,1,0,0,0,0-2ZM55,43a7.008,7.008,0,0,1,7,7c0,4.508-5.143,9.853-7,11.636C53.142,59.854,48,54.515,48,50A7.008,7.008,0,0,1,55,43Z" style="fill:#2c2d30"/><path d="M5,21a1,1,0,0,0,0,2h8a1,1,0,0,0,0-2H11.469C13.926,18.457,18,13.559,18,9A9,9,0,0,0,0,9c0,4.559,4.074,9.457,6.531,12ZM9,2a7.008,7.008,0,0,1,7,7c0,4.508-5.143,9.853-7,11.636C7.142,18.854,2,13.515,2,9A7.008,7.008,0,0,1,9,2Z" style="fill:#2c2d30"/><path d="M16,22a1,1,0,0,0,1,1H39a3,3,0,0,1,3,3V42a3,3,0,0,1-3,3H34a1,1,0,0,0,0,2h5a5.006,5.006,0,0,0,5-5V26a5.006,5.006,0,0,0-5-5H17A1,1,0,0,0,16,22Z" style="fill:#2c2d30"/><path d="M47,62H4a2,2,0,0,1-2-2V49a2,2,0,0,1,2-2H8a1,1,0,0,0,0-2H4a4,4,0,0,0-4,4V60a4,4,0,0,0,4,4H47a1,1,0,0,0,0-2Z" style="fill:#2c2d30"/></g></svg>