<svg xmlns="http://www.w3.org/2000/svg" viewBox="0 0 64 64"><title>Artboard-31</title><g id="Search_Box" data-name="Search Box"><path d="M22,35.017H2v-30H13v10a1,1,0,0,0,1,1H26a1,1,0,0,0,1-1v-10H38v14a1,1,0,0,0,2,0v-15a1,1,0,0,0-1-1H1a1,1,0,0,0-1,1v32a1,1,0,0,0,1,1H22a1,1,0,0,0,0-2Zm3-30v9H15v-9Z" style="fill:#2c2d30"/><path d="M5,31.017a1,1,0,0,0,0,2h7a1,1,0,1,0,0-2Z" style="fill:#2c2d30"/><path d="M20,28.017a1,1,0,0,0-1-1H5a1,1,0,1,0,0,2H19A1,1,0,0,0,20,28.017Z" style="fill:#2c2d30"/><path d="M49,36.017a10,10,0,1,0-10,10A10.011,10.011,0,0,0,49,36.017Zm-18,0a8,8,0,1,1,8,8A8.009,8.009,0,0,1,31,36.017Z" style="fill:#2c2d30"/><path d="M40,31.017a1,1,0,0,0-1-1,6.006,6.006,0,0,0-6,6,1,1,0,0,0,2,0,4,4,0,0,1,4-4A1,1,0,0,0,40,31.017Z" style="fill:#2c2d30"/><path d="M61.6,47.205l-8.819-8.819A14.1,14.1,0,1,0,41.37,49.8l8.818,8.819A8.071,8.071,0,0,0,61.6,47.205ZM27,36.017a12,12,0,1,1,12,12A12.013,12.013,0,0,1,27,36.017Zm25.219,4.632,6.367,6.368L50,55.6l-6.367-6.368A14.3,14.3,0,0,0,52.219,40.649Zm7.969,16.556a6.071,6.071,0,0,1-8.585,0l-.189-.188L60,48.431l.188.188A6.078,6.078,0,0,1,60.188,57.205Z" style="fill:#2c2d30"/></g></svg>