<svg width="12" height="13" viewBox="0 0 12 13" fill="none" xmlns="http://www.w3.org/2000/svg">
<path d="M0 11.7812V4.875H11.375V11.7812C11.375 12.4668 10.8164 13 10.1562 13H1.21875C0.533203 13 0 12.4668 0 11.7812ZM8.125 6.80469V7.82031C8.125 7.99805 8.25195 8.125 8.42969 8.125H9.44531C9.59766 8.125 9.75 7.99805 9.75 7.82031V6.80469C9.75 6.65234 9.59766 6.5 9.44531 6.5H8.42969C8.25195 6.5 8.125 6.65234 8.125 6.80469ZM8.125 10.0547V11.0703C8.125 11.248 8.25195 11.375 8.42969 11.375H9.44531C9.59766 11.375 9.75 11.248 9.75 11.0703V10.0547C9.75 9.90234 9.59766 9.75 9.44531 9.75H8.42969C8.25195 9.75 8.125 9.90234 8.125 10.0547ZM4.875 6.80469V7.82031C4.875 7.99805 5.00195 8.125 5.17969 8.125H6.19531C6.34766 8.125 6.5 7.99805 6.5 7.82031V6.80469C6.5 6.65234 6.34766 6.5 6.19531 6.5H5.17969C5.00195 6.5 4.875 6.65234 4.875 6.80469ZM4.875 10.0547V11.0703C4.875 11.248 5.00195 11.375 5.17969 11.375H6.19531C6.34766 11.375 6.5 11.248 6.5 11.0703V10.0547C6.5 9.90234 6.34766 9.75 6.19531 9.75H5.17969C5.00195 9.75 4.875 9.90234 4.875 10.0547ZM1.625 6.80469V7.82031C1.625 7.99805 1.75195 8.125 1.92969 8.125H2.94531C3.09766 8.125 3.25 7.99805 3.25 7.82031V6.80469C3.25 6.65234 3.09766 6.5 2.94531 6.5H1.92969C1.75195 6.5 1.625 6.65234 1.625 6.80469ZM1.625 10.0547V11.0703C1.625 11.248 1.75195 11.375 1.92969 11.375H2.94531C3.09766 11.375 3.25 11.248 3.25 11.0703V10.0547C3.25 9.90234 3.09766 9.75 2.94531 9.75H1.92969C1.75195 9.75 1.625 9.90234 1.625 10.0547ZM10.1562 1.625C10.8164 1.625 11.375 2.18359 11.375 2.84375V4.0625H0V2.84375C0 2.18359 0.533203 1.625 1.21875 1.625H2.4375V0.40625C2.4375 0.203125 2.61523 0 2.84375 0H3.65625C3.85938 0 4.0625 0.203125 4.0625 0.40625V1.625H7.3125V0.40625C7.3125 0.203125 7.49023 0 7.71875 0H8.53125C8.73438 0 8.9375 0.203125 8.9375 0.40625V1.625H10.1562Z" fill="white"/>
</svg>
