<svg width="11" height="9" viewBox="0 0 11 9" fill="none" xmlns="http://www.w3.org/2000/svg">
<path d="M5.12891 4.54492L1.67578 7.99805C1.42188 8.25195 1.04102 8.25195 0.8125 7.99805L0.228516 7.43945C0 7.18555 0 6.80469 0.228516 6.57617L2.69141 4.13867L0.228516 1.67578C0 1.44727 0 1.06641 0.228516 0.8125L0.8125 0.228516C1.04102 0 1.42188 0 1.67578 0.228516L5.12891 3.68164C5.35742 3.93555 5.35742 4.31641 5.12891 4.54492ZM10.0039 3.68164C10.2324 3.93555 10.2324 4.31641 10.0039 4.54492L6.55078 7.99805C6.32227 8.25195 5.91602 8.25195 5.6875 7.99805L5.10352 7.43945C4.875 7.18555 4.875 6.80469 5.10352 6.57617L7.56641 4.11328L5.10352 1.67578C4.875 1.44727 4.875 1.04102 5.10352 0.8125L5.6875 0.228516C5.91602 0 6.29688 0 6.55078 0.228516L10.0039 3.68164Z" fill="white"/>
</svg>
