<svg width="14" height="14" viewBox="0 0 14 14" fill="none" xmlns="http://www.w3.org/2000/svg">
<path d="M12.8223 11.248C13.0508 11.502 13.0508 11.8828 12.7969 12.1113L12.0859 12.8223C11.8574 13.0762 11.4766 13.0762 11.2227 12.8223L8.70898 10.3086C8.58203 10.1816 8.53125 10.0293 8.53125 9.87695V9.44531C7.61719 10.1562 6.5 10.5625 5.28125 10.5625C2.36133 10.5625 0 8.20117 0 5.28125C0 2.38672 2.36133 0 5.28125 0C8.17578 0 10.5625 2.38672 10.5625 5.28125C10.5625 6.52539 10.1309 7.64258 9.44531 8.53125H9.85156C10.0039 8.53125 10.1562 8.60742 10.2832 8.70898L12.8223 11.248ZM5.28125 8.53125C7.05859 8.53125 8.53125 7.08398 8.53125 5.28125C8.53125 3.50391 7.05859 2.03125 5.28125 2.03125C3.47852 2.03125 2.03125 3.50391 2.03125 5.28125C2.03125 7.08398 3.47852 8.53125 5.28125 8.53125Z" fill="white"/>
</svg>
