<svg width="10" height="14" viewBox="0 0 10 14" fill="none" xmlns="http://www.w3.org/2000/svg">
<path d="M4.36719 12.7461C0.660156 7.41406 0 6.85547 0 4.875C0 2.18359 2.1582 0 4.875 0C7.56641 0 9.75 2.18359 9.75 4.875C9.75 6.85547 9.06445 7.41406 5.35742 12.7461C5.12891 13.1016 4.5957 13.1016 4.36719 12.7461ZM4.875 6.90625C5.99219 6.90625 6.90625 6.01758 6.90625 4.875C6.90625 3.75781 5.99219 2.84375 4.875 2.84375C3.73242 2.84375 2.84375 3.75781 2.84375 4.875C2.84375 6.01758 3.73242 6.90625 4.875 6.90625Z" fill="white"/>
</svg>
