<svg xmlns="http://www.w3.org/2000/svg" viewBox="0 0 64 64"><title>Artboard-29</title><g id="Logistics_Arrived" data-name="Logistics Arrived"><path d="M63,42H62V33a1,1,0,0,0-1-1H56V23a1,1,0,0,0-1-1H43a1,1,0,0,0-1,1v9H37a1,1,0,0,0-1,1v9H34V34.472A4.974,4.974,0,0,0,31.236,30L24,26.382V23.235A8.009,8.009,0,0,0,26.737,19H28.52A2.482,2.482,0,0,0,31,16.52V15.48a2.464,2.464,0,0,0-.673-1.687,10.207,10.207,0,0,0,1.662-4.679C32.131,6.551,30.854,4.229,28.3,2.4A13.338,13.338,0,0,0,20.472,0H15a4.007,4.007,0,0,0-3.9,3.1A4.007,4.007,0,0,0,8,7v6.5A2.471,2.471,0,0,0,7,15.48v1.04A2.482,2.482,0,0,0,9.48,19h1.783A8.009,8.009,0,0,0,14,23.235v3.147L6.764,30A4.974,4.974,0,0,0,4,34.472V42H1a1,1,0,0,0-1,1v6a1,1,0,0,0,1,1H3V63a1,1,0,0,0,1,1H60a1,1,0,0,0,1-1V50h2a1,1,0,0,0,1-1V43A1,1,0,0,0,63,42Zm-3,0H50V34h2v3a1,1,0,0,0,1,1h4a1,1,0,0,0,1-1V34h2Zm-4-8v2H54V34ZM50,24v2H48V24Zm-6,0h2v3a1,1,0,0,0,1,1h4a1,1,0,0,0,1-1V24h2v8H44Zm0,10v2H42V34Zm-6,0h2v3a1,1,0,0,0,1,1h4a1,1,0,0,0,1-1V34h2v8H38ZM29,16.52a.481.481,0,0,1-.48.48H27V15h1.52a.481.481,0,0,1,.48.48ZM12,5a1,1,0,0,0,1-1,2,2,0,0,1,2-2h5.472a11.348,11.348,0,0,1,6.665,2.028c2,1.43,2.959,3.105,2.856,4.977-.067,1.221-.436,2.033-1.514,3.995H27V12a1,1,0,0,0-1-1c-6.595,0-9.075-3.423-9.174-3.563a1,1,0,0,0-1.466-.206c-2.155,1.794-3.18,1.782-3.139,1.793A1,1,0,0,0,11,10v3H10V7A2,2,0,0,1,12,5ZM9.48,17A.481.481,0,0,1,9,16.52V15.48A.481.481,0,0,1,9.48,15H11v2ZM13,17V10.893a8.68,8.68,0,0,0,2.873-1.52c1.2,1.206,4.036,3.35,9.127,3.6V17a6,6,0,0,1-12,0Zm6,8a7.945,7.945,0,0,0,3-.589V27a3,3,0,0,1-6,0V24.411A7.945,7.945,0,0,0,19,25ZM6,34.472a2.986,2.986,0,0,1,1.658-2.683l6.6-3.3a4.966,4.966,0,0,0,9.494,0l6.595,3.3A2.986,2.986,0,0,1,32,34.472V42H27V37a1,1,0,0,0-2,0v5H13V37a1,1,0,0,0-2,0v5H6ZM59,62H5V50H59Zm3-14H2V44H62Z" style="fill:#2c2d30"/></g></svg>