<svg xmlns="http://www.w3.org/2000/svg" viewBox="0 0 64 64"><title>Artboard-38</title><g id="Telephone"><path d="M43.2,45.364,32.334,43.192a1,1,0,0,0-.991.373l-4.25,5.559A32.275,32.275,0,0,1,14.876,36.907l5.559-4.251a1,1,0,0,0,.373-.99L18.636,20.8a1,1,0,0,0-.981-.8H1a1,1,0,0,0-1,1A43.049,43.049,0,0,0,43,64a1,1,0,0,0,1-1V46.345A1,1,0,0,0,43.2,45.364ZM42,61.988A41.049,41.049,0,0,1,2.012,22H16.835l1.89,9.447-5.746,4.394A1,1,0,0,0,12.7,37.1,34.286,34.286,0,0,0,26.9,51.3a1,1,0,0,0,1.264-.276l4.394-5.746L42,47.165Z" style="fill:#2c2d30"/><path d="M44,0A20,20,0,0,0,26.267,29.25l-2.241,9.521A1,1,0,0,0,25,40a1.051,1.051,0,0,0,.229-.026l9.521-2.241A20,20,0,1,0,44,0Zm0,38a18.019,18.019,0,0,1-8.631-2.2,1,1,0,0,0-.48-.123,1.038,1.038,0,0,0-.229.026l-8.317,1.956L28.3,29.341a1.007,1.007,0,0,0-.1-.71A18,18,0,1,1,44,38Z" style="fill:#2c2d30"/><path d="M54,10H34a1,1,0,0,0-1,1V29a1,1,0,0,0,1,1H54a1,1,0,0,0,1-1V11A1,1,0,0,0,54,10Zm-8,2v4H42V12Zm7,16H35V12h5v5a1,1,0,0,0,1,1h6a1,1,0,0,0,1-1V12h5Z" style="fill:#2c2d30"/><path d="M43,22H37a1,1,0,0,0,0,2h6a1,1,0,0,0,0-2Z" style="fill:#2c2d30"/><path d="M40,25H37a1,1,0,0,0,0,2h3a1,1,0,0,0,0-2Z" style="fill:#2c2d30"/></g></svg>