<svg xmlns="http://www.w3.org/2000/svg" viewBox="0 0 64 64"><title>Artboard-37</title><g id="Clipboard"><path d="M24,9a5,5,0,1,0-5,5A5.006,5.006,0,0,0,24,9ZM16,9a3,3,0,1,1,3,3A3,3,0,0,1,16,9Z" style="fill:#2c2d30"/><path d="M4.71,37.96h.01a1,1,0,1,0-.98,1.24,1.038,1.038,0,0,0,.24-.03A1,1,0,0,0,4.71,37.96Z" style="fill:#2c2d30"/><path d="M3.18,35.25a1.049,1.049,0,1,0-.08,0Z" style="fill:#2c2d30"/><path d="M5.91,41.609a1,1,0,1,0-1.84.771,1.008,1.008,0,0,0,.92.62,1.087,1.087,0,0,0,.39-.08A1,1,0,0,0,5.91,41.609Z" style="fill:#2c2d30"/><path d="M8.82,16.609a1.023,1.023,0,0,0,.78-.369,1,1,0,1,0-1.41.15A.987.987,0,0,0,8.82,16.609Z" style="fill:#2c2d30"/><path d="M2.99,31.26h.07a.97.97,0,1,0-.07,0Z" style="fill:#2c2d30"/><path d="M6.29,44.7a1,1,0,0,0-.33,1.38.989.989,0,0,0,.85.47.969.969,0,0,0,.52-.14,1.006,1.006,0,0,0,.33-1.38A.994.994,0,0,0,6.29,44.7Z" style="fill:#2c2d30"/><path d="M6.04,19.75a.926.926,0,0,0,.5.14,1.03,1.03,0,0,0,.87-.491A1,1,0,0,0,5.68,18.39.987.987,0,0,0,6.04,19.75Z" style="fill:#2c2d30"/><path d="M3.41,27.28a.833.833,0,0,0,.22.03.994.994,0,0,0,.97-.78v-.01a1,1,0,1,0-1.19.76Z" style="fill:#2c2d30"/><path d="M4.05,30.319v0Z" style="fill:#2c2d30"/><path d="M4.43,23.42a1.156,1.156,0,0,0,.37.07,1.01,1.01,0,0,0,.93-.64,1,1,0,1,0-1.3.57Z" style="fill:#2c2d30"/><path d="M30.35,56.96a1,1,0,0,0,.05,2h.06a1,1,0,0,0-.11-2Z" style="fill:#2c2d30"/><path d="M22.72,56.2v.01a1,1,0,0,0-.5,1.93h.01a1.007,1.007,0,0,0,.25.03,1,1,0,0,0,.24-1.97Z" style="fill:#2c2d30"/><path d="M26.51,56.88a1,1,0,0,0-1.1.89,1.015,1.015,0,0,0,.9,1.1h.1a1,1,0,0,0,.1-1.99Z" style="fill:#2c2d30"/><path d="M34.16,56.47v-.01a.994.994,0,0,0-.77,1.189.983.983,0,0,0,.97.79.787.787,0,0,0,.21-.019,1,1,0,1,0-.41-1.95Z" style="fill:#2c2d30"/><path d="M8.5,48.03a1,1,0,1,0,1.41.119A1,1,0,0,0,8.5,48.03Z" style="fill:#2c2d30"/><path d="M11.2,50.979a1,1,0,0,0,.1,1.411,1.013,1.013,0,0,0,.66.24.977.977,0,0,0,.75-.34,1,1,0,0,0-1.51-1.311Z" style="fill:#2c2d30"/><path d="M19.09,54.96a.991.991,0,0,0-1.31.519A1,1,0,0,0,18.3,56.8a1.087,1.087,0,0,0,.39.08,1,1,0,0,0,.4-1.92Z" style="fill:#2c2d30"/><path d="M15.7,53.17a1.01,1.01,0,0,0-1.38.309.991.991,0,0,0,.31,1.38.957.957,0,0,0,.53.161,1,1,0,0,0,.54-1.85Z" style="fill:#2c2d30"/><path d="M50.68,18.64a1.006,1.006,0,0,0,.83-1.56v.01a1,1,0,1,0-1.67,1.1A1.015,1.015,0,0,0,50.68,18.64Z" style="fill:#2c2d30"/><path d="M48.22,15.49a1.009,1.009,0,0,0,.67-.261,1,1,0,0,0,.07-1.41V13.81a1,1,0,0,0-1.48,1.35A1,1,0,0,0,48.22,15.49Z" style="fill:#2c2d30"/><path d="M45.31,12.75a1.02,1.02,0,0,0,.78-.37,1,1,0,0,0-1.56-1.26,1,1,0,0,0,.78,1.63Z" style="fill:#2c2d30"/><path d="M51.71,21.54a1,1,0,0,0,.91.58,1.023,1.023,0,0,0,.42-.09,1,1,0,0,0,.49-1.33,1,1,0,0,0-1.82.84Z" style="fill:#2c2d30"/><path d="M53.87,39.67a.987.987,0,0,0-1.27.61,1,1,0,0,0,.61,1.28,1.256,1.256,0,0,0,.33.049,1,1,0,0,0,.33-1.939Z" style="fill:#2c2d30"/><path d="M55.55,36.93a.98.98,0,1,0-.99.82A1,1,0,0,0,55.55,36.93Z" style="fill:#2c2d30"/><path d="M53.05,25.14a.993.993,0,0,0,.96.73.871.871,0,0,0,.27-.04,1,1,0,1,0-1.23-.69Z" style="fill:#2c2d30"/><path d="M55.99,32.81a1,1,0,0,0-.97-1.03.984.984,0,0,0-1.03.97,1,1,0,0,0,.97,1.03h.03A1,1,0,0,0,55.99,32.81Z" style="fill:#2c2d30"/><path d="M53.81,28.91a.994.994,0,0,0,.99.87h.13a1,1,0,1,0-1.12-.87Z" style="fill:#2c2d30"/><path d="M38.05,8.689a1.134,1.134,0,0,0,.36.061.986.986,0,1,0-.36-.061Z" style="fill:#2c2d30"/><path d="M30.57,7.05a1,1,0,1,0-.94-1.06A1.011,1.011,0,0,0,30.57,7.05Z" style="fill:#2c2d30"/><path d="M34.37,7.58a1.635,1.635,0,0,0,.22.02,1,1,0,0,0,.21-1.98,1,1,0,0,0-.43,1.96Z" style="fill:#2c2d30"/><path d="M41.51,10.35a1.033,1.033,0,0,0,.5.14,1.007,1.007,0,1,0-.5-.14Z" style="fill:#2c2d30"/><path d="M61,44H39a1,1,0,0,0-1,1V63a1,1,0,0,0,1,1H61a1,1,0,0,0,1-1V45A1,1,0,0,0,61,44Zm-9,2v4H48V46Zm8,16H40V46h6v5a1,1,0,0,0,1,1h6a1,1,0,0,0,1-1V46h6Z" style="fill:#2c2d30"/><path d="M49,56H42a1,1,0,0,0,0,2h7a1,1,0,0,0,0-2Z" style="fill:#2c2d30"/><path d="M46,59H42a1,1,0,0,0,0,2h4a1,1,0,0,0,0-2Z" style="fill:#2c2d30"/><path d="M36.685,37.587a26.767,26.767,0,0,1,3.05-.47c2.532-.273,3.72-.531,5.349-3.79,1.6-3.2,3.051-4.3,4.632-4.611a20.428,20.428,0,0,1-1.557,11.872,1,1,0,0,0,1.822.824A22.667,22.667,0,0,0,52,32,23.188,23.188,0,0,0,38.474,11.089a.978.978,0,0,0-.414-.186,22.517,22.517,0,0,0-7.033-1.809,1,1,0,1,0-.174,1.992,20.509,20.509,0,0,1,4.552.945c-2.945,1.847-6.288,5.329-5.45,10.141a5.331,5.331,0,0,1-2.587,5.81c-1.91,1.186-3.99,1.243-4.485.878-1.644-1.2-3.883-1.733-6.476-2.344-.647-.154-1.314-.311-1.992-.485a7.84,7.84,0,0,1-4.194-3.45A20.818,20.818,0,0,1,11.9,19.8a1,1,0,0,0-1.626-1.164A23.007,23.007,0,0,0,35.272,54.132a1,1,0,1,0-.544-1.924A21.084,21.084,0,0,1,29,53a20.85,20.85,0,0,1-6.941-1.2c-2.96-2.559-1.509-7.15-.137-10.408.849-2.017.889-3.576.12-4.767-.872-1.35-2.717-2.045-5.641-2.121q-.114,0-.228,0a10.63,10.63,0,0,0-7.33,3.341,20.8,20.8,0,0,1,.459-13.1,8.985,8.985,0,0,0,4.616,3.235c.691.177,1.37.337,2.03.493,2.38.561,4.436,1.046,5.752,2.012a3.727,3.727,0,0,0,2.184.574,9.011,9.011,0,0,0,4.538-1.365,7.371,7.371,0,0,0,3.5-7.855c-.9-5.179,4.334-8.095,5.9-8.843A21.256,21.256,0,0,1,49.3,26.761c-2.48.494-4.281,2.217-6.009,5.672-1.209,2.419-1.651,2.466-3.775,2.7a28.292,28.292,0,0,0-3.264.505c-2.154.472-3.525,1.333-4.19,2.631-1.011,1.972-.138,4.592.957,7.133a9.613,9.613,0,0,0,1.185,2.053,1,1,0,0,0,1.584-1.222,7.658,7.658,0,0,1-.934-1.625c-1.215-2.818-1.518-4.441-1.012-5.427C34.222,38.444,35.15,37.924,36.685,37.587ZM16.177,36.5c.057,0,.115,0,.172,0,2.152.056,3.54.473,4.013,1.206.377.585.282,1.563-.284,2.906-1.194,2.836-2.4,6.551-1.377,9.669a21.115,21.115,0,0,1-9.117-10.3C10.434,38.973,12.864,36.5,16.177,36.5Z" style="fill:#2c2d30"/><path d="M16,21a1,1,0,0,0,0,2h6a1,1,0,0,0,0-2h-.531C23.926,18.457,28,13.559,28,9A9,9,0,0,0,10,9c0,4.559,4.074,9.457,6.531,12ZM19,2a7.008,7.008,0,0,1,7,7c0,4.508-5.143,9.853-7,11.636C17.142,18.854,12,13.515,12,9A7.008,7.008,0,0,1,19,2Z" style="fill:#2c2d30"/></g></svg>