<svg width="24" height="24" viewBox="0 0 24 24" fill="none" xmlns="http://www.w3.org/2000/svg">
<path d="M19.8281 3.42188C22.1094 5.67188 23.25 8.40625 23.25 11.625C23.25 14.8438 22.1094 17.5938 19.8281 19.875C17.5781 22.125 14.8438 23.25 11.625 23.25C8.40625 23.25 5.65625 22.125 3.375 19.875C1.125 17.5938 0 14.8438 0 11.625C0 8.40625 1.125 5.67188 3.375 3.42188C5.65625 1.14062 8.40625 0 11.625 0C14.8438 0 17.5781 1.14062 19.8281 3.42188ZM10.2656 17.7656L18.8906 9.14062C19.2656 8.79688 19.2656 8.45312 18.8906 8.10938L17.8594 7.03125C17.4844 6.6875 17.125 6.6875 16.7812 7.03125L9.75 14.0625L6.46875 10.7812C6.125 10.4375 5.76562 10.4375 5.39062 10.7812L4.35938 11.8594C3.98438 12.2031 3.98438 12.5469 4.35938 12.8906L9.23438 17.7656C9.57812 18.1406 9.92188 18.1406 10.2656 17.7656Z" fill="#FF7900"/>
</svg>
