<svg width="13" height="13" viewBox="0 0 13 13" fill="none" xmlns="http://www.w3.org/2000/svg">
<path d="M5.30664 4.875C5.50977 4.875 5.71289 5.07812 5.71289 5.28125C5.71289 5.50977 5.50977 5.6875 5.30664 5.6875C5.07812 5.6875 4.90039 5.50977 4.90039 5.28125C4.90039 5.07812 5.07812 4.875 5.30664 4.875ZM11.4512 2.13281C11.8828 2.31055 12.2129 2.76758 12.2129 3.25C12.2129 8.88672 8.75977 12.0098 6.57617 12.9238C6.42383 12.9746 6.27148 13 6.09375 13C5.94141 13 5.78906 12.9746 5.63672 12.9238C2.91992 11.7812 0.0253906 8.30273 0.0253906 3.25H0C0 2.76758 0.330078 2.31055 0.761719 2.13281L5.63672 0.101562C5.78906 0.0507812 5.94141 0.0253906 6.11914 0C6.27148 0.0253906 6.42383 0.0507812 6.57617 0.101562L11.4512 2.13281ZM9.36914 6.5C9.57227 6.5 9.77539 6.32227 9.77539 6.09375C9.77539 5.89062 9.57227 5.6875 9.36914 5.6875H9.03906C8.32812 5.6875 7.97266 4.82422 8.48047 4.31641L8.68359 4.08789C8.75977 4.01172 8.81055 3.91016 8.81055 3.80859C8.81055 3.58008 8.63281 3.40234 8.4043 3.40234C8.30273 3.40234 8.20117 3.45312 8.125 3.5293L7.89648 3.73242C7.38867 4.24023 6.52539 3.88477 6.52539 3.17383V2.84375C6.52539 2.64062 6.32227 2.4375 6.11914 2.4375C5.89062 2.4375 5.71289 2.64062 5.71289 2.84375V3.17383C5.71289 3.88477 4.82422 4.24023 4.31641 3.73242L4.08789 3.5293C4.01172 3.45312 3.91016 3.40234 3.80859 3.40234C3.58008 3.40234 3.40234 3.58008 3.40234 3.80859C3.40234 3.91016 3.45312 4.01172 3.5293 4.08789L3.73242 4.31641C4.24023 4.82422 3.88477 5.6875 3.17383 5.6875H2.86914C2.64062 5.6875 2.46289 5.89062 2.46289 6.09375C2.46289 6.32227 2.64062 6.5 2.86914 6.5H3.17383C3.88477 6.5 4.24023 7.38867 3.73242 7.89648L3.5293 8.125C3.45312 8.20117 3.40234 8.30273 3.40234 8.4043C3.40234 8.63281 3.58008 8.81055 3.80859 8.81055C3.91016 8.81055 4.01172 8.75977 4.08789 8.68359L4.31641 8.48047C4.82422 7.97266 5.71289 8.32812 5.71289 9.03906V9.34375C5.71289 9.57227 5.89062 9.75 6.11914 9.75C6.32227 9.75 6.52539 9.57227 6.52539 9.34375V9.03906C6.52539 8.32812 7.38867 7.97266 7.89648 8.48047L8.125 8.68359C8.20117 8.75977 8.30273 8.81055 8.4043 8.81055C8.63281 8.81055 8.81055 8.63281 8.81055 8.4043C8.81055 8.30273 8.75977 8.20117 8.68359 8.125L8.48047 7.89648C7.97266 7.38867 8.32812 6.5 9.03906 6.5H9.36914ZM6.93164 6.5C7.13477 6.5 7.33789 6.70312 7.33789 6.90625C7.33789 7.13477 7.13477 7.3125 6.93164 7.3125C6.70312 7.3125 6.52539 7.13477 6.52539 6.90625C6.52539 6.70312 6.70312 6.5 6.93164 6.5Z" fill="#D52B22"/>
</svg>
