<svg width="13" height="13" viewBox="0 0 13 13" fill="none" xmlns="http://www.w3.org/2000/svg">
<path d="M6.15236 2.98047C7.87502 2.98047 9.29689 4.40234 9.29689 6.125C9.29689 7.875 7.87502 9.26953 6.15236 9.26953C4.40236 9.26953 3.00783 7.875 3.00783 6.125C3.00783 4.40234 4.40236 2.98047 6.15236 2.98047ZM6.15236 8.17578C7.27345 8.17578 8.1758 7.27344 8.1758 6.125C8.1758 5.00391 7.27345 4.10156 6.15236 4.10156C5.00392 4.10156 4.10158 5.00391 4.10158 6.125C4.10158 7.27344 5.03127 8.17578 6.15236 8.17578ZM10.1445 2.87109C10.1445 3.28125 9.81642 3.60938 9.40627 3.60938C8.99611 3.60938 8.66798 3.28125 8.66798 2.87109C8.66798 2.46094 8.99611 2.13281 9.40627 2.13281C9.81642 2.13281 10.1445 2.46094 10.1445 2.87109ZM12.2227 3.60938C12.2774 4.62109 12.2774 7.65625 12.2227 8.66797C12.168 9.65234 11.9492 10.5 11.2383 11.2383C10.5274 11.9492 9.65236 12.168 8.66798 12.2227C7.65627 12.2773 4.62111 12.2773 3.60939 12.2227C2.62502 12.168 1.77736 11.9492 1.03908 11.2383C0.32814 10.5 0.10939 9.65234 0.0547028 8.66797C1.52588e-05 7.65625 1.52588e-05 4.62109 0.0547028 3.60938C0.10939 2.625 0.32814 1.75 1.03908 1.03906C1.77736 0.328125 2.62502 0.109375 3.60939 0.0546875C4.62111 0 7.65627 0 8.66798 0.0546875C9.65236 0.109375 10.5274 0.328125 11.2383 1.03906C11.9492 1.75 12.168 2.625 12.2227 3.60938ZM10.9102 9.73438C11.2383 8.94141 11.1563 7.02734 11.1563 6.125C11.1563 5.25 11.2383 3.33594 10.9102 2.51562C10.6914 1.99609 10.2813 1.55859 9.76173 1.36719C8.94142 1.03906 7.02736 1.12109 6.15236 1.12109C5.25002 1.12109 3.33595 1.03906 2.54298 1.36719C1.99611 1.58594 1.58595 1.99609 1.3672 2.51562C1.03908 3.33594 1.12111 5.25 1.12111 6.125C1.12111 7.02734 1.03908 8.94141 1.3672 9.73438C1.58595 10.2812 1.99611 10.6914 2.54298 10.9102C3.33595 11.2383 5.25002 11.1562 6.15236 11.1562C7.02736 11.1562 8.94142 11.2383 9.76173 10.9102C10.2813 10.6914 10.7188 10.2812 10.9102 9.73438Z" fill="white"/>
</svg>
