<svg width="13" height="13" viewBox="0 0 13 13" fill="none" xmlns="http://www.w3.org/2000/svg">
<path d="M2.73439 12.2227H0.191422V4.04688H2.73439V12.2227ZM1.44923 2.95312C0.656265 2.95312 1.52588e-05 2.26953 1.52588e-05 1.44922C1.52588e-05 0.65625 0.656265 0 1.44923 0C2.26955 0 2.9258 0.65625 2.9258 1.44922C2.9258 2.26953 2.26955 2.95312 1.44923 2.95312ZM12.2227 12.2227H9.70705V8.25781C9.70705 7.30078 9.6797 6.09766 8.3672 6.09766C7.0547 6.09766 6.8633 7.10938 6.8633 8.17578V12.2227H4.32033V4.04688H6.75392V5.16797H6.78127C7.13673 4.53906 7.95705 3.85547 9.18752 3.85547C11.7578 3.85547 12.25 5.55078 12.25 7.73828V12.2227H12.2227Z" fill="white"/>
</svg>
