<svg width="200" height="27" viewBox="0 0 200 27" fill="none" xmlns="http://www.w3.org/2000/svg">
<path d="M6.7379 0H0V19.7645C0 23.4858 3.01666 26.5024 6.73791 26.5024H26.5024V6.73791C26.5024 3.01666 23.4858 0 19.7645 0H10.8516V14.3973H26.5024V17.7431H6.7379V0Z" fill="#D52B22"/>
<mask id="mask0_938_907" style="mask-type:alpha" maskUnits="userSpaceOnUse" x="0" y="0" width="27" height="27">
<path d="M6.7379 0H0V19.7645C0 23.4858 3.01666 26.5024 6.73791 26.5024H26.5024V6.73791C26.5024 3.01666 23.4858 0 19.7645 0H10.8516V14.3973H26.5024V17.7431H6.7379V0Z" fill="#D52B22"/>
</mask>
<g mask="url(#mask0_938_907)">
<circle cx="28.7483" cy="14.3743" r="12.1282" fill="white" fill-opacity="0.2"/>
<circle cx="-2.13365" cy="13.1388" r="6.17641" fill="white" fill-opacity="0.2"/>
</g>
<path d="M45.3076 0.679182H46.86V20.6342H57.5652V22.1866H45.3076V0.679182ZM40.8767 0.679182H42.4291V24.3535H57.5652V25.9059H40.8767V0.679182Z" fill="white"/>
<path d="M71.7241 26.5527C69.3955 26.5527 67.3579 26.0137 65.6115 24.9356C63.865 23.8576 62.5066 22.3267 61.5364 20.3431C60.5661 18.3379 60.081 15.9661 60.081 13.2279C60.081 10.5543 60.5661 8.22564 61.5364 6.242C62.5066 4.25836 63.865 2.7275 65.6115 1.64944C67.3579 0.549813 69.3955 0 71.7241 0C74.0527 0 76.0795 0.549813 77.8044 1.64944C79.5509 2.74907 80.8984 4.2907 81.8471 6.27434C82.7958 8.25798 83.2702 10.5758 83.2702 13.2279C83.2702 15.9661 82.7958 18.3379 81.8471 20.3431C80.8984 22.3267 79.5509 23.8576 77.8044 24.9356C76.0795 26.0137 74.0527 26.5527 71.7241 26.5527ZM71.7241 25.0327C73.7724 25.0327 75.5404 24.5475 77.0282 23.5773C78.5159 22.607 79.6694 21.2379 80.4888 19.4699C81.3081 17.7018 81.7178 15.6212 81.7178 13.2279C81.7178 10.8992 81.3081 8.86169 80.4888 7.11523C79.6694 5.36876 78.5159 4.0104 77.0282 3.04014C75.5404 2.04832 73.7724 1.55241 71.7241 1.55241C69.6758 1.55241 67.897 2.03754 66.3877 3.0078C64.8784 3.97806 63.7033 5.33642 62.8624 7.08289C62.0431 8.82935 61.6334 10.8777 61.6334 13.2279C61.6334 15.6212 62.0431 17.7018 62.8624 19.4699C63.7033 21.2379 64.8784 22.607 66.3877 23.5773C67.897 24.5475 69.6758 25.0327 71.7241 25.0327ZM71.7241 23.0598C70.4304 23.0598 69.2338 22.6825 68.1341 21.9278C67.0561 21.1732 66.1936 20.0736 65.5468 18.629C64.9 17.1628 64.5765 15.3624 64.5765 13.2279C64.5765 11.0717 64.9215 9.28214 65.6115 7.85909C66.3014 6.41449 67.1854 5.33642 68.2635 4.6249C69.3631 3.89181 70.5167 3.52527 71.7241 3.52527C73.0178 3.52527 74.1929 3.89181 75.2494 4.6249C76.3274 5.33642 77.1791 6.41449 77.8044 7.85909C78.4512 9.28214 78.7746 11.0717 78.7746 13.2279C78.7746 15.3624 78.4404 17.1628 77.772 18.629C77.1036 20.0736 76.2304 21.1732 75.1523 21.9278C74.0958 22.6825 72.9531 23.0598 71.7241 23.0598ZM71.7241 21.5074C72.7375 21.5074 73.6538 21.184 74.4732 20.5371C75.3141 19.8903 75.9825 18.9524 76.4784 17.7234C76.9743 16.4728 77.2222 14.9743 77.2222 13.2279C77.2222 10.5974 76.7048 8.5814 75.6698 7.17991C74.6349 5.77843 73.3196 5.07769 71.7241 5.07769C70.7323 5.07769 69.8051 5.39033 68.9427 6.0156C68.1018 6.64088 67.4226 7.55724 66.9052 8.76467C66.3877 9.9721 66.1289 11.4598 66.1289 13.2279C66.1289 14.9743 66.3661 16.4728 66.8405 17.7234C67.3364 18.9524 68.0048 19.8903 68.8457 20.5371C69.7081 21.184 70.6676 21.5074 71.7241 21.5074Z" fill="white"/>
<path d="M97.935 13.0338V11.4814H108.543V22.2189C107.681 23.5988 106.452 24.6661 104.856 25.4208C103.261 26.1754 101.32 26.5527 99.0346 26.5527C96.4473 26.5527 94.2157 26.0137 92.3398 24.9356C90.464 23.8576 89.0086 22.3267 87.9737 20.3431C86.9603 18.3379 86.4536 15.9661 86.4536 13.2279C86.4536 10.5758 86.9495 8.25798 87.9413 6.27434C88.9547 4.2907 90.3562 2.74907 92.1458 1.64944C93.9354 0.549813 95.9945 0 98.3231 0C100.76 0 102.819 0.452787 104.5 1.35836C106.204 2.24237 107.422 3.43903 108.155 4.94832L107.12 5.91858C106.193 4.32304 104.975 3.20185 103.465 2.55501C101.956 1.88661 100.242 1.55241 98.3231 1.55241C96.2748 1.55241 94.4744 2.03754 92.922 3.0078C91.3696 3.97806 90.1621 5.3472 89.2997 7.11523C88.4372 8.86169 88.006 10.8992 88.006 13.2279C88.006 15.6427 88.448 17.7342 89.332 19.5022C90.2376 21.2702 91.5097 22.6394 93.1484 23.6096C94.8086 24.5583 96.7707 25.0327 99.0346 25.0327C102.786 25.0327 105.438 23.9438 106.991 21.7661V13.0338H97.935ZM97.935 16.3974V14.845H105.018V20.3107C104.457 21.2163 103.681 21.9386 102.689 22.4777C101.697 23.0167 100.479 23.2862 99.0346 23.2862C97.59 23.2862 96.2532 22.8981 95.0242 22.1219C93.7952 21.3457 92.8142 20.2137 92.0811 18.726C91.348 17.2167 90.9815 15.384 90.9815 13.2279C90.9815 11.1149 91.3264 9.33604 92.0164 7.89144C92.7279 6.42527 93.6874 5.31486 94.8948 4.56022C96.1023 3.80557 97.4606 3.42825 98.9699 3.42825C100.242 3.42825 101.482 3.7301 102.689 4.33382C103.897 4.91598 104.91 5.88623 105.729 7.2446L104.533 8.37656C103.972 7.32006 103.217 6.48995 102.269 5.88624C101.342 5.28252 100.242 4.98066 98.9699 4.98066C97.7194 4.98066 96.609 5.30408 95.6387 5.95092C94.6684 6.59776 93.903 7.53567 93.3424 8.76467C92.8034 9.99366 92.5339 11.4814 92.5339 13.2279C92.5339 15.0174 92.825 16.5483 93.4071 17.8204C93.9893 19.0925 94.7655 20.0628 95.7357 20.7312C96.7275 21.3996 97.8272 21.7338 99.0346 21.7338C100.134 21.7338 101.061 21.5613 101.816 21.2163C102.571 20.8498 103.12 20.397 103.465 19.858V16.3974H97.935Z" fill="white"/>
<path d="M117.956 0.679182H119.508V25.9059H117.956V0.679182ZM113.428 0.679182H114.98V25.9059H113.428V0.679182Z" fill="white"/>
<path d="M130.701 14.5539C128.782 13.8639 127.327 12.9799 126.335 11.9018C125.364 10.8238 124.879 9.34682 124.879 7.47099C124.879 6.11263 125.235 4.87285 125.947 3.75167C126.658 2.60892 127.682 1.70334 129.019 1.03494C130.356 0.344981 131.962 0 133.838 0C138.431 0 141.449 1.671 142.894 5.013L141.665 5.88624C140.802 4.16133 139.714 3.0078 138.398 2.42565C137.105 1.84349 135.585 1.55241 133.838 1.55241C132.307 1.55241 130.981 1.82193 129.86 2.36096C128.76 2.87843 127.909 3.58996 127.305 4.49553C126.723 5.37954 126.432 6.37136 126.432 7.47099C126.432 8.98028 126.841 10.1554 127.661 10.9963C128.48 11.8372 129.666 12.5379 131.218 13.0985L134.873 14.3922C136.512 14.9743 137.622 15.6535 138.204 16.4297C138.786 17.1844 139.077 18.0468 139.077 19.0171C139.077 20.1814 138.679 21.1516 137.881 21.9278C137.083 22.704 135.757 23.0922 133.903 23.0922C132.544 23.0922 131.24 22.6717 129.989 21.8308C128.739 20.9684 127.704 19.6423 126.885 17.8528L128.211 16.9472C128.771 18.3918 129.58 19.5238 130.636 20.3431C131.693 21.1409 132.782 21.5397 133.903 21.5397C135.153 21.5397 136.07 21.3133 136.652 20.8606C137.234 20.4078 137.525 19.7933 137.525 19.0171C137.525 18.3271 137.288 17.7342 136.814 17.2383C136.339 16.7208 135.52 16.2572 134.356 15.8476L130.701 14.5539ZM132.803 11.0286C131.402 10.5543 130.421 9.98288 129.86 9.31448C129.299 8.64608 129.019 7.92378 129.019 7.14757C129.019 6.47917 129.17 5.85389 129.472 5.27174C129.795 4.68958 130.324 4.21523 131.057 3.84869C131.811 3.48215 132.814 3.29888 134.064 3.29888C135.337 3.29888 136.479 3.6223 137.493 4.26914C138.506 4.91598 139.315 5.87545 139.918 7.14757L138.625 8.08549C138.237 7.05055 137.633 6.25278 136.814 5.69218C135.994 5.13159 135.078 4.85129 134.064 4.85129C132.814 4.85129 131.919 5.07769 131.38 5.53047C130.841 5.9617 130.572 6.50073 130.572 7.14757C130.572 8.13939 131.477 8.93716 133.288 9.54087L137.299 10.8669C139.218 11.4922 140.738 12.4085 141.859 13.616C143.002 14.8234 143.573 16.4081 143.573 18.3702C143.573 20.9791 142.732 22.9951 141.05 24.4182C139.39 25.8412 137.018 26.5527 133.935 26.5527C131.326 26.5527 129.159 25.9706 127.434 24.8063C125.709 23.642 124.491 22.0249 123.78 19.955L124.944 19.1788C125.893 21.3133 127.122 22.8226 128.631 23.7066C130.14 24.5907 131.908 25.0327 133.935 25.0327C136.501 25.0327 138.485 24.4613 139.886 23.3185C141.309 22.1758 142.021 20.5264 142.021 18.3702C142.021 16.7747 141.535 15.5026 140.565 14.5539C139.616 13.6052 138.366 12.8721 136.814 12.3546L132.803 11.0286Z" fill="white"/>
<path d="M146.155 0.679182H165.592V2.23159H146.155V0.679182ZM157.313 4.04274H165.592V5.59516H158.865V25.9059H157.313V4.04274ZM152.849 5.59516H146.155V4.04274H154.402V25.9059H152.849V5.59516Z" fill="white"/>
<path d="M173.607 0.679182H175.159V25.9059H173.607V0.679182ZM169.079 0.679182H170.631V25.9059H169.079V0.679182Z" fill="white"/>
<path d="M185.155 0.679182L189.166 8.2472L193.176 0.679182H194.89L189.166 11.5137L183.441 0.679182H185.155ZM190.75 12.8398L197.801 0.679182H199.612L192.529 12.8721L200 25.9059H198.221L190.75 12.8398ZM185.737 13.0985L178.59 0.679182H180.401L187.548 13.0985L180.174 25.9059H178.363L185.737 13.0985ZM189.069 17.9174L184.767 25.9059H182.988L189.101 14.6186L194.987 25.9059H193.273L189.069 17.9174Z" fill="white"/>
</svg>
