<svg width="13" height="10" viewBox="0 0 13 10" fill="none" xmlns="http://www.w3.org/2000/svg">
<path d="M12.7461 3.22461C12.8477 3.14844 13 3.22461 13 3.35156V8.53125C13 9.2168 12.4414 9.75 11.7812 9.75H1.21875C0.533203 9.75 0 9.2168 0 8.53125V3.35156C0 3.22461 0.126953 3.14844 0.228516 3.22461C0.8125 3.68164 1.54883 4.24023 4.13867 6.11914C4.67188 6.5 5.58594 7.33789 6.5 7.33789C7.38867 7.33789 8.32812 6.5 8.83594 6.11914C11.4258 4.24023 12.1621 3.68164 12.7461 3.22461ZM6.5 6.5C5.89062 6.52539 5.05273 5.76367 4.62109 5.45898C1.24414 3.02148 0.990234 2.79297 0.228516 2.18359C0.0761719 2.08203 0 1.9043 0 1.70117V1.21875C0 0.558594 0.533203 0 1.21875 0H11.7812C12.4414 0 13 0.558594 13 1.21875V1.70117C13 1.9043 12.8984 2.08203 12.7461 2.18359C11.9844 2.79297 11.7305 3.02148 8.35352 5.45898C7.92188 5.76367 7.08398 6.52539 6.5 6.5Z" fill="white"/>
</svg>
