<svg width="14" height="12" viewBox="0 0 14 12" fill="none" xmlns="http://www.w3.org/2000/svg">
<path d="M12.5508 2.81641C12.5508 2.95312 12.5508 3.0625 12.5508 3.19922C12.5508 7 9.67974 11.3477 4.4024 11.3477C2.76177 11.3477 1.25787 10.8828 5.34058e-05 10.0625C0.218803 10.0898 0.437553 10.1172 0.683647 10.1172C2.02349 10.1172 3.25396 9.65234 4.23833 8.88672C2.98052 8.85938 1.91412 8.03906 1.55865 6.89062C1.75005 6.91797 1.91412 6.94531 2.10552 6.94531C2.35162 6.94531 2.62505 6.89062 2.8438 6.83594C1.5313 6.5625 0.546928 5.41406 0.546928 4.01953V3.99219C0.929741 4.21094 1.39458 4.32031 1.85943 4.34766C1.06646 3.82812 0.574272 2.95312 0.574272 1.96875C0.574272 1.42188 0.710991 0.929688 0.957085 0.519531C2.37896 2.24219 4.51177 3.39062 6.89068 3.52734C6.83599 3.30859 6.80865 3.08984 6.80865 2.87109C6.80865 1.28516 8.0938 0 9.67974 0C10.5001 0 11.2383 0.328125 11.7852 0.902344C12.4141 0.765625 13.043 0.519531 13.5899 0.191406C13.3711 0.875 12.9336 1.42188 12.3321 1.77734C12.9063 1.72266 13.4805 1.55859 13.9727 1.33984C13.5899 1.91406 13.0977 2.40625 12.5508 2.81641Z" fill="white"/>
</svg>
