<svg width="15" height="11" viewBox="0 0 15 11" fill="none" xmlns="http://www.w3.org/2000/svg">
<path d="M14.629 1.66797C14.9572 2.81641 14.9572 5.27734 14.9572 5.27734C14.9572 5.27734 14.9572 7.71094 14.629 8.88672C14.465 9.54297 13.9454 10.0352 13.3165 10.1992C12.1407 10.5 7.49231 10.5 7.49231 10.5C7.49231 10.5 2.81653 10.5 1.64075 10.1992C1.01184 10.0352 0.49231 9.54297 0.328247 8.88672C0.00012207 7.71094 0.00012207 5.27734 0.00012207 5.27734C0.00012207 5.27734 0.00012207 2.81641 0.328247 1.66797C0.49231 1.01172 1.01184 0.492188 1.64075 0.328125C2.81653 0 7.49231 0 7.49231 0C7.49231 0 12.1407 0 13.3165 0.328125C13.9454 0.492188 14.465 1.01172 14.629 1.66797ZM5.96106 7.49219L9.84387 5.27734L5.96106 3.0625V7.49219Z" fill="white"/>
</svg>
